<?xml version="1.0" standalone="no"?>
<!DOCTYPE svg PUBLIC "-//W3C//DTD SVG 20010904//EN"
 "http://www.w3.org/TR/2001/REC-SVG-20010904/DTD/svg10.dtd">
<svg version="1.0" xmlns="http://www.w3.org/2000/svg"
 width="736.000000pt" height="736.000000pt" viewBox="0 0 736.000000 736.000000"
 preserveAspectRatio="xMidYMid meet">

<g transform="translate(0.000000,736.000000) scale(0.100000,-0.100000)"
fill="#000000" stroke="none">
<path d="M2458 6980 c-66 -12 -148 -97 -148 -155 0 -8 -12 -20 -26 -25 -77
-29 -117 -90 -115 -172 0 -27 8 -62 17 -77 18 -31 73 -71 97 -71 13 0 17 -10
19 -45 1 -25 2 -53 2 -62 1 -12 -22 -25 -89 -48 -473 -166 -980 -456 -1298
-742 -73 -66 -82 -71 -132 -75 -103 -9 -160 -81 -160 -203 1 -84 18 -122 81
-181 44 -42 44 -42 44 -111 0 -84 23 -277 51 -421 92 -482 301 -967 585 -1357
52 -71 97 -136 100 -143 4 -7 -9 -45 -27 -85 -32 -68 -34 -78 -34 -182 0 -101
3 -118 34 -198 55 -146 156 -318 314 -538 l33 -46 -17 -104 c-38 -223 -51
-430 -46 -704 6 -275 14 -336 61 -479 62 -185 161 -301 307 -358 47 -19 74
-21 214 -22 223 0 391 24 990 139 1047 201 1242 229 1755 250 439 18 820 105
1150 262 199 94 313 178 407 299 67 85 113 205 113 295 0 121 -90 465 -177
674 -39 94 -145 301 -207 404 -31 51 -56 95 -56 97 0 2 -24 41 -54 87 -102
157 -136 213 -136 224 0 6 -4 13 -8 15 -5 2 -24 30 -44 63 -196 332 -256 474
-317 750 -46 207 -67 268 -113 320 -60 68 -92 86 -223 126 l-120 36 -12 124
c-43 446 -140 869 -304 1324 -119 331 -193 505 -244 575 -18 25 -25 47 -25 80
0 43 -26 96 -66 137 -35 36 -108 63 -169 63 -65 0 -114 -23 -158 -74 -18 -20
-26 -21 -330 -22 -349 -2 -538 -16 -842 -66 -104 -17 -204 -33 -220 -35 -25
-4 -33 0 -45 21 -12 24 -11 28 13 54 29 30 49 101 40 143 -7 38 -58 96 -104
119 -26 14 -58 20 -104 20 -39 0 -65 4 -65 11 0 11 -68 79 -79 79 -3 0 -22 4
-41 8 -19 5 -52 5 -72 2z m2069 -341 c36 -13 93 -68 93 -90 0 -9 -7 -19 -15
-23 -26 -10 -17 -36 31 -89 55 -62 89 -127 161 -312 150 -383 234 -647 304
-955 38 -169 91 -501 105 -664 6 -69 5 -79 -9 -73 -15 6 -177 25 -252 30 -33
2 -41 6 -43 24 -5 37 -211 126 -341 148 l-44 7 7 77 c3 42 11 78 16 79 25 9 2
303 -36 457 -41 164 -130 381 -197 479 -18 26 -25 46 -21 60 12 39 73 131 118
178 49 51 56 72 29 86 -24 13 -53 0 -86 -37 -28 -32 -98 -135 -108 -160 -4
-10 -15 -4 -39 25 -129 148 -273 261 -420 327 -36 16 -74 33 -85 38 -55 25
-266 69 -371 78 -266 23 -499 -31 -613 -140 l-40 -39 -19 37 c-11 21 -22 53
-26 72 -6 31 -5 33 17 26 126 -41 224 12 251 136 5 25 12 28 95 43 416 77 736
96 1341 82 l55 -1 -3 41 c-2 34 2 43 20 52 30 14 89 15 125 1z m-2125 -360
c40 -20 90 -22 129 -5 13 6 19 -4 33 -52 9 -32 16 -61 16 -64 0 -3 -55 -8
-122 -11 -265 -10 -484 -112 -693 -322 -163 -162 -269 -345 -350 -600 -15 -49
-31 -94 -35 -98 -4 -5 -36 5 -71 22 -119 56 -221 67 -227 25 -3 -22 31 -44 69
-44 26 0 163 -57 189 -78 20 -17 20 -17 -1 -137 -28 -161 -23 -456 10 -611 58
-277 194 -558 360 -744 17 -19 31 -40 31 -46 0 -5 -28 -53 -63 -106 -35 -52
-80 -129 -102 -169 -21 -41 -40 -76 -42 -79 -6 -7 -46 45 -136 180 -347 515
-536 1060 -578 1670 -6 91 -13 171 -15 179 -3 10 -14 12 -40 8 -31 -5 -37 -3
-54 26 -13 21 -20 50 -20 83 0 43 5 56 34 89 30 36 38 39 84 40 44 0 55 5 94
40 66 61 217 187 268 223 101 71 249 172 254 172 2 0 49 27 105 60 189 112
461 238 706 326 66 24 121 43 123 43 1 1 21 -8 44 -20z m995 -45 c-3 -3 -12
-4 -19 -1 -8 3 -5 6 6 6 11 1 17 -2 13 -5z m180 -40 c-3 -3 -12 -4 -19 -1 -8
3 -5 6 6 6 11 1 17 -2 13 -5z m88 -24 c3 -5 1 -10 -4 -10 -6 0 -11 5 -11 10 0
6 2 10 4 10 3 0 8 -4 11 -10z m-785 -10 c0 -5 -4 -10 -10 -10 -5 0 -10 5 -10
10 0 6 5 10 10 10 6 0 10 -4 10 -10z m880 -36 c0 -2 -7 -4 -15 -4 -8 0 -15 4
-15 10 0 5 7 7 15 4 8 -4 15 -8 15 -10z m-882 -69 c-3 -3 -9 2 -12 12 -6 14
-5 15 5 6 7 -7 10 -15 7 -18z m-1038 -285 c0 -5 -5 -10 -11 -10 -5 0 -7 5 -4
10 3 6 8 10 11 10 2 0 4 -4 4 -10z m-20 -34 c0 -3 -4 -8 -10 -11 -5 -3 -10 -1
-10 4 0 6 5 11 10 11 6 0 10 -2 10 -4z m2325 -56 c3 -5 1 -10 -4 -10 -6 0 -11
5 -11 10 0 6 2 10 4 10 3 0 8 -4 11 -10z m-2405 -40 c0 -5 -8 -10 -17 -10 -15
0 -16 2 -3 10 19 12 20 12 20 0z m2390 -5 c7 -9 8 -15 2 -15 -5 0 -12 7 -16
15 -3 8 -4 15 -2 15 2 0 9 -7 16 -15z m135 5 c3 -5 1 -10 -4 -10 -6 0 -11 5
-11 10 0 6 2 10 4 10 3 0 8 -4 11 -10z m-258 -22 c-3 -8 -6 -5 -6 6 -1 11 2
17 5 13 3 -3 4 -12 1 -19z m42 -62 c10 -12 8 -13 -8 -9 -12 3 -21 9 -21 14 0
14 16 11 29 -5z m-529 -71 c7 -14 17 -25 22 -25 4 0 8 -7 8 -15 0 -8 4 -15 9
-15 5 0 11 -8 15 -17 7 -22 33 -67 62 -108 12 -17 25 -44 28 -62 11 -49 28
-57 89 -45 28 6 64 8 78 5 14 -3 73 0 130 6 72 7 116 7 144 0 22 -6 48 -10 58
-10 9 0 17 -4 17 -9 0 -5 8 -11 18 -15 24 -7 45 -49 48 -95 1 -19 18 -80 37
-135 20 -55 36 -112 36 -127 1 -27 5 -33 60 -81 30 -27 91 -136 91 -164 0 -8
-14 -13 -37 -13 -102 0 -181 -57 -213 -150 -15 -44 -24 -56 -47 -62 -95 -27
-253 -51 -498 -78 -364 -40 -578 -73 -745 -114 -159 -39 -348 -94 -442 -129
l-68 -24 -32 23 c-17 13 -37 24 -44 24 -24 0 -24 18 0 61 33 60 44 134 22 158
-15 16 -13 24 18 102 34 83 69 261 59 299 -3 11 -15 20 -27 22 -16 2 1 15 64
51 126 72 218 109 277 112 34 2 62 10 83 25 17 12 41 23 53 25 86 14 253 95
267 130 11 26 43 52 58 47 19 -6 115 27 133 46 8 10 42 99 74 200 32 100 64
182 70 182 7 0 18 -11 25 -25z m-1887 -5 c-3 -11 -7 -20 -9 -20 -2 0 -4 9 -4
20 0 11 4 20 9 20 5 0 7 -9 4 -20z m2028 3 c13 -16 12 -17 -3 -4 -10 7 -18 15
-18 17 0 8 8 3 21 -13z m159 -3 c0 -5 -2 -10 -4 -10 -3 0 -8 5 -11 10 -3 6 -1
10 4 10 6 0 11 -4 11 -10z m290 0 c0 -5 -2 -10 -4 -10 -3 0 -8 5 -11 10 -3 6
-1 10 4 10 6 0 11 -4 11 -10z m127 -12 c-3 -8 -6 -5 -6 6 -1 11 2 17 5 13 3
-3 4 -12 1 -19z m-149 -43 c-3 -3 -9 2 -12 12 -6 14 -5 15 5 6 7 -7 10 -15 7
-18z m42 15 c0 -5 -2 -10 -4 -10 -3 0 -8 5 -11 10 -3 6 -1 10 4 10 6 0 11 -4
11 -10z m-803 -52 c-3 -8 -6 -5 -6 6 -1 11 2 17 5 13 3 -3 4 -12 1 -19z m400
0 c-3 -8 -6 -5 -6 6 -1 11 2 17 5 13 3 -3 4 -12 1 -19z m566 -33 c-3 -9 -8
-14 -10 -11 -3 3 -2 9 2 15 9 16 15 13 8 -4z m-613 -45 c0 -5 -4 -10 -10 -10
-5 0 -10 5 -10 10 0 6 5 10 10 10 6 0 10 -4 10 -10z m-2164 -76 c-19 -19 -21
-11 -4 16 7 11 14 16 16 10 2 -5 -4 -17 -12 -26z m2671 14 c-3 -8 -6 -5 -6 6
-1 11 2 17 5 13 3 -3 4 -12 1 -19z m-1358 -78 c-5 -10 -8 5 -8 40 1 55 1 55 9
15 4 -22 4 -47 -1 -55z m121 -39 c0 -6 -4 -13 -10 -16 -5 -3 -10 1 -10 9 0 9
5 16 10 16 6 0 10 -4 10 -9z m230 -11 c0 -5 -5 -10 -11 -10 -5 0 -7 5 -4 10 3
6 8 10 11 10 2 0 4 -4 4 -10z m-1713 -62 c-3 -8 -6 -5 -6 6 -1 11 2 17 5 13 3
-3 4 -12 1 -19z m2896 -3 c4 -8 2 -17 -3 -20 -6 -4 -10 3 -10 14 0 25 6 27 13
6z m-1570 -45 c-3 -11 -9 -20 -14 -20 -11 0 -11 3 -3 24 9 23 23 20 17 -4z
m-368 -10 c-3 -5 -11 -10 -16 -10 -6 0 -7 5 -4 10 3 6 11 10 16 10 6 0 7 -4 4
-10z m56 -127 c-12 -20 -14 -14 -5 12 4 9 9 14 11 11 3 -2 0 -13 -6 -23z
m1944 -33 c3 -5 -1 -10 -9 -10 -9 0 -16 5 -16 10 0 6 4 10 9 10 6 0 13 -4 16
-10z m212 -295 c27 -8 81 -29 119 -47 l69 -32 -75 -11 c-81 -12 -100 -10 -100
10 0 13 -48 58 -86 82 -18 11 -18 12 2 12 11 1 43 -6 71 -14z m-71 -88 c66
-77 -14 -217 -123 -217 -112 0 -185 79 -150 161 29 68 75 90 181 86 61 -3 71
-6 92 -30z m631 -95 c177 -38 312 -84 354 -119 43 -37 67 -90 94 -211 13 -59
33 -147 45 -195 12 -49 20 -91 17 -94 -3 -3 -70 7 -149 21 -475 85 -993 84
-1558 -3 -112 -17 -481 -85 -860 -157 -542 -103 -836 -248 -1085 -535 -101
-116 -151 -184 -315 -434 -62 -93 -116 -170 -121 -170 -18 0 -85 139 -113 234
-9 30 -16 89 -16 130 0 75 1 78 85 246 134 269 197 365 320 490 72 73 163 145
184 145 4 0 26 -9 49 -20 145 -70 322 49 322 217 l0 32 124 40 c345 113 649
173 1081 216 196 19 348 40 440 61 115 25 145 28 145 14 0 -38 133 -110 203
-110 83 0 188 89 216 181 11 36 14 38 59 42 112 11 388 -2 479 -21z m-2920
-14 c-3 -8 -6 -5 -6 6 -1 11 2 17 5 13 3 -3 4 -12 1 -19z m-65 -93 c-2 -14 -6
-25 -8 -25 -2 0 -4 11 -4 25 0 14 4 25 9 25 4 0 6 -11 3 -25z m-745 -27 c-3
-8 -6 -5 -6 6 -1 11 2 17 5 13 3 -3 4 -12 1 -19z m81 -229 c-3 -8 -7 -3 -11
10 -4 17 -3 21 5 13 5 -5 8 -16 6 -23z m787 -25 c78 -51 33 -193 -71 -224 -50
-15 -110 -1 -154 36 -26 22 -30 32 -30 76 0 60 11 83 53 108 41 26 165 28 202
4z m-625 -256 c0 -12 -6 -9 -26 13 -19 22 -19 22 4 8 12 -8 22 -17 22 -21z
m3585 7 c161 -17 425 -63 442 -77 6 -5 14 -21 18 -36 7 -27 105 -232 148 -307
36 -65 97 -168 110 -189 7 -11 51 -82 100 -158 48 -76 87 -141 87 -144 0 -3
14 -26 32 -52 68 -99 203 -354 262 -495 88 -210 167 -513 167 -641 0 -76 -16
-133 -58 -206 -142 -242 -579 -451 -1138 -544 -134 -23 -275 -35 -526 -46
-441 -19 -639 -49 -1779 -270 -496 -97 -631 -114 -855 -108 -140 3 -154 5
-206 31 -99 48 -177 148 -222 287 -75 227 -88 645 -31 1055 19 139 19 139 42
124 11 -7 27 -9 36 -6 32 13 16 53 -59 150 -98 127 -195 270 -195 288 0 20
282 441 366 547 179 225 315 333 559 443 229 103 377 136 1425 319 60 11 416
47 520 54 134 8 620 -4 755 -19z"/>
<path d="M1615 3583 c-8 -8 -15 -19 -15 -25 0 -5 -16 -41 -35 -79 -19 -39 -35
-76 -35 -84 0 -19 38 -29 55 -15 24 20 85 150 85 180 0 33 -32 46 -55 23z"/>
<path d="M3902 4831 c-67 -15 -124 -30 -126 -32 -5 -5 -9 -30 -7 -51 2 -28 32
-29 137 -8 176 37 174 36 174 74 0 33 -14 47 -43 45 -7 0 -67 -13 -135 -28z"/>
<path d="M3110 4573 c-74 -24 -244 -103 -252 -117 -13 -20 -9 -35 16 -51 23
-15 30 -14 143 35 65 29 124 56 131 62 15 13 16 50 0 66 -13 13 -15 13 -38 5z"/>
<path d="M3595 4495 c-16 -8 -56 -19 -88 -26 -61 -12 -83 -34 -72 -69 8 -24
55 -26 130 -6 85 22 125 45 125 72 0 23 -26 45 -52 43 -7 0 -26 -7 -43 -14z"/>
</g>
</svg>
