<?xml version="1.0" standalone="no"?>
<!DOCTYPE svg PUBLIC "-//W3C//DTD SVG 20010904//EN"
 "http://www.w3.org/TR/2001/REC-SVG-20010904/DTD/svg10.dtd">
<svg version="1.0" xmlns="http://www.w3.org/2000/svg"
 width="735.000000pt" height="956.000000pt" viewBox="0 0 735.000000 956.000000"
 preserveAspectRatio="xMidYMid meet">

<g transform="translate(0.000000,956.000000) scale(0.100000,-0.100000)"
fill="#000000" stroke="none">
<path d="M3120 7190 c-583 -56 -1060 -356 -1331 -837 -191 -340 -300 -860
-270 -1284 14 -194 33 -305 111 -654 101 -446 95 -601 -28 -737 -43 -47 -102
-77 -153 -78 -52 0 -136 45 -166 91 -28 43 -47 49 -63 20 -30 -58 5 -157 102
-285 93 -123 214 -200 362 -231 61 -12 87 -23 118 -49 130 -112 343 -168 555
-146 84 9 238 43 296 65 29 12 20 -12 -47 -129 -150 -258 -176 -342 -136 -440
l22 -55 -29 -37 c-24 -32 -25 -37 -8 -30 49 18 72 17 110 -6 l40 -23 -45 -7
c-25 -4 -70 -7 -100 -8 -30 0 -112 -6 -183 -12 -119 -10 -128 -10 -141 7 -12
16 -14 12 -20 -37 l-7 -56 -82 -7 c-122 -9 -393 -22 -463 -21 -100 2 -132 52
-81 127 35 52 72 60 219 48 140 -11 379 -39 390 -45 4 -2 9 0 12 5 10 15 -358
60 -500 61 -81 0 -128 -23 -153 -75 -18 -38 -4 -92 30 -118 33 -24 33 -24 449
-9 821 30 871 30 988 5 69 -15 122 -21 150 -17 78 11 153 79 188 170 l16 42
77 9 c42 4 150 8 241 8 151 -1 179 -4 340 -38 238 -50 240 -51 306 -102 31
-25 72 -47 90 -51 18 -3 134 3 256 15 123 11 542 50 931 86 505 46 717 70 738
80 52 27 50 24 195 490 215 697 344 1145 344 1198 0 47 -34 74 -103 82 -71 8
-791 55 -846 55 -24 0 -42 -2 -40 -4 4 -4 50 -7 609 -47 179 -13 308 -26 328
-34 29 -13 32 -18 32 -56 0 -60 -288 -1037 -452 -1534 -43 -130 -59 -143 -195
-155 -54 -5 -251 -23 -438 -40 -187 -17 -550 -51 -808 -75 -257 -25 -488 -45
-513 -45 -37 0 -51 5 -75 29 -16 16 -29 40 -29 54 0 13 18 102 40 198 68 289
420 1679 437 1720 25 63 54 79 138 79 l73 0 11 48 c45 197 54 232 61 237 4 3
11 -34 14 -82 12 -174 19 -208 42 -211 26 -4 36 18 68 146 32 124 62 296 77
437 16 151 17 558 1 665 -62 412 -186 712 -392 945 -259 292 -435 423 -728
537 -306 120 -682 176 -982 148z m772 -169 c269 -58 526 -186 693 -346 59 -57
60 -58 35 -65 -49 -15 -66 -9 -165 56 -265 175 -504 248 -805 248 -370 -1
-682 -126 -931 -374 -154 -154 -260 -336 -362 -625 -98 -275 -130 -453 -131
-732 l-1 -201 -29 -6 c-16 -3 -52 -6 -81 -6 l-53 0 -7 106 c-8 117 7 361 31
500 77 449 266 823 551 1095 210 200 460 323 748 368 102 16 396 5 507 -18z
m-1540 -576 c14 -32 4 -60 -68 -173 -2 -2 -12 -1 -23 3 -15 4 -21 15 -21 35 0
16 -5 41 -12 55 l-11 25 -25 -22 -26 -23 23 32 c58 84 140 118 163 68z m408
-44 c0 -21 -85 -121 -103 -121 -7 0 -31 -10 -54 -22 -32 -17 -45 -20 -54 -11
-12 12 -13 11 47 81 22 25 43 41 51 38 9 -4 11 -1 7 6 -5 8 -2 9 9 5 10 -4 16
-2 14 5 -1 7 14 18 33 24 47 17 50 17 50 -5z m203 -83 c-2 -35 2 -35 31 -2 19
23 28 26 58 20 24 -4 38 -13 41 -26 3 -11 12 -20 21 -20 40 0 -1 -81 -73 -147
-31 -29 -41 -42 -29 -43 9 0 20 5 23 10 4 6 12 7 18 4 7 -4 9 -4 5 1 -4 4 16
33 44 64 28 31 57 69 65 86 l14 30 -6 -30 c-11 -52 -36 -93 -81 -135 -36 -33
-51 -41 -77 -38 -18 2 -33 9 -33 16 -1 6 -2 21 -3 32 -2 29 -18 25 -56 -15
-50 -54 -103 -56 -73 -3 7 13 13 44 13 70 l2 48 -36 -22 c-20 -12 -44 -28 -54
-37 -16 -13 -19 -13 -27 -1 -17 26 -11 38 52 105 l61 66 51 -3 c49 -3 51 -4
49 -30z m1245 -6 l3 -22 19 22 c27 33 44 12 42 -56 0 -55 -22 -111 -51 -133
-24 -19 -28 -16 -62 30 -21 28 -38 42 -54 42 -13 1 -23 -2 -22 -5 1 -3 -11
-21 -27 -40 -34 -41 -34 -42 22 73 24 48 53 94 65 102 30 21 61 15 65 -13z
m-446 -131 c-9 -19 -21 -35 -26 -35 -5 -1 -18 23 -29 52 -11 30 -26 56 -34 59
-7 3 -28 -6 -46 -19 -17 -14 -45 -32 -62 -41 -16 -8 -52 -34 -78 -57 -47 -42
-48 -42 -70 -24 -12 10 -24 20 -25 21 -2 1 7 18 21 38 40 59 95 88 67 35 -19
-35 -5 -34 32 4 28 28 45 37 99 46 37 6 84 22 105 35 l39 24 12 -52 c10 -45
10 -57 -5 -86z m939 -407 c49 -123 89 -243 104 -317 17 -78 19 -244 5 -331 -5
-33 -8 -62 -6 -64 11 -10 71 34 104 78 20 27 41 49 45 49 5 1 5 -3 2 -9 -3 -5
-17 -76 -30 -157 -34 -219 -93 -513 -116 -590 -12 -38 -38 -90 -59 -119 -21
-27 -51 -77 -68 -110 -36 -71 -65 -93 -212 -163 -287 -136 -649 -193 -1035
-162 -462 37 -733 141 -896 344 -120 149 -253 477 -278 684 l-8 65 71 52 c76
56 197 172 259 248 36 43 44 48 114 64 64 14 83 15 127 4 43 -10 70 -10 158 3
111 17 270 65 271 82 0 6 -23 19 -51 30 -29 11 -52 22 -52 25 1 3 44 30 98 62
122 71 296 193 402 281 45 38 84 66 87 64 8 -9 -28 -82 -69 -137 -56 -74 -180
-201 -247 -253 l-54 -42 39 -12 c21 -6 63 -12 92 -12 75 -1 308 36 411 65 151
43 355 155 509 280 17 15 32 21 32 15 0 -13 -154 -171 -220 -225 -40 -32 -42
-36 -19 -32 66 11 227 114 296 190 27 29 66 86 88 126 l38 73 18 -35 c10 -20
32 -71 50 -114z m-2601 -929 c9 -40 27 -74 60 -110 15 -16 46 -79 69 -140 44
-115 118 -268 153 -317 11 -16 17 -32 14 -36 -4 -3 -11 0 -16 8 -7 11 -29 14
-92 12 -90 -2 -172 14 -240 49 -58 30 -141 116 -173 180 -65 128 -32 308 68
370 24 15 46 19 92 17 57 -3 59 -4 65 -33z m1103 -1034 c33 -49 100 -104 163
-133 65 -30 233 -33 306 -5 43 17 96 64 124 113 14 22 8 25 120 -61 107 -81
261 -236 311 -314 l42 -64 -24 -31 c-27 -36 -101 -95 -162 -132 l-43 -25 0 68
c0 103 -18 240 -41 317 -11 37 -22 66 -24 64 -3 -2 2 -36 11 -74 9 -43 18
-160 23 -309 10 -327 20 -348 196 -432 42 -19 77 -34 79 -32 2 2 6 21 9 41 5
36 4 38 -48 67 -67 38 -122 85 -141 122 -7 15 -14 30 -14 33 0 2 42 -17 93
-44 107 -56 168 -76 87 -29 -64 37 -190 136 -190 149 0 5 21 24 48 42 26 17
71 54 99 81 l53 50 32 -33 c18 -17 51 -41 73 -52 22 -11 41 -22 43 -23 4 -3
-93 -381 -106 -416 l-10 -26 -194 -2 c-437 -5 -810 -19 -803 -32 6 -9 951 -3
966 7 23 14 25 -12 6 -87 l-20 -81 -81 6 c-45 4 -101 9 -126 13 -31 3 -42 2
-35 -5 12 -12 123 -47 183 -57 45 -7 48 -14 31 -64 -13 -36 -20 -38 -56 -14
-14 9 -62 27 -107 38 -69 19 -81 25 -82 44 -1 12 -4 24 -7 27 -3 4 -96 15
-206 25 -198 18 -372 42 -441 59 -19 5 -95 19 -169 30 -74 11 -139 24 -144 27
-17 11 143 62 288 92 127 27 414 39 446 18 13 -8 35 -18 49 -21 15 -3 10 2
-13 13 l-39 18 34 8 c48 10 82 11 173 3 44 -3 69 -2 55 2 -18 6 -4 9 50 10 68
2 71 3 35 11 -38 8 -505 -4 -685 -17 -57 -4 -127 -19 -210 -45 -146 -46 -253
-58 -354 -39 -36 7 -66 16 -66 21 0 5 3 9 8 9 28 1 342 41 398 51 118 22 42
21 -150 0 -225 -26 -248 -22 -284 50 -38 77 -48 347 -14 381 9 9 52 14 132 17
116 3 120 2 120 -17 0 -37 -22 -127 -36 -150 -13 -20 -13 -23 3 -28 77 -24
191 -99 231 -153 12 -16 36 -41 54 -54 l33 -25 85 19 c47 10 133 22 193 25 59
4 107 10 107 14 0 3 -41 25 -90 48 -122 58 -190 121 -190 177 0 24 46 65 72
65 19 -1 17 -4 -14 -21 -45 -23 -49 -50 -15 -100 32 -48 69 -59 114 -34 20 11
43 31 52 45 12 19 6 17 -27 -12 -52 -47 -82 -48 -116 -7 -26 30 -36 89 -16 89
6 0 10 -6 10 -14 0 -7 7 -19 15 -26 13 -10 22 -8 53 14 21 14 48 26 60 26 12
0 22 4 22 10 0 11 -53 40 -75 40 -18 0 -20 20 -2 44 20 27 81 13 74 -16 -3
-11 3 -34 14 -51 17 -29 19 -30 19 -9 0 13 5 32 10 42 9 16 15 17 39 9 16 -6
37 -19 46 -29 15 -17 15 -21 1 -49 -35 -66 -11 -153 56 -201 39 -28 86 -42
183 -55 l50 -6 -52 31 c-66 39 -101 80 -108 128 -19 115 -72 184 -180 238 -69
34 -79 36 -142 32 -44 -3 -84 -13 -114 -29 -70 -36 -186 -117 -192 -133 -7
-19 37 -55 75 -63 16 -3 28 -9 28 -14 0 -14 -102 -104 -114 -101 -21 6 -141
84 -168 110 -36 33 -36 62 1 149 44 103 64 218 58 332 -5 101 -20 150 -64 208
-37 48 -39 34 -4 -22 17 -26 35 -73 42 -103 13 -66 7 -201 -12 -257 l-14 -40
-75 -3 c-138 -4 -280 -22 -311 -38 -17 -8 -33 -13 -36 -11 -5 6 92 238 137
326 37 75 111 155 174 192 68 39 94 37 131 -9 121 -152 304 -239 485 -230 148
7 250 72 280 179 12 40 0 36 -33 -12 -103 -149 -352 -165 -549 -36 -71 47
-188 145 -188 158 0 8 32 15 81 18 20 1 32 -8 52 -38z m321 19 c121 -6 222
-12 224 -15 11 -11 -52 -75 -94 -96 -58 -28 -167 -30 -244 -4 -51 17 -140 89
-140 113 0 14 -17 14 254 2z m1012 -255 c-2 -5 -25 -94 -52 -197 -28 -106 -54
-188 -60 -188 -24 0 -23 34 1 142 29 127 31 172 10 212 -8 15 -15 31 -15 35 0
3 27 6 60 6 36 0 59 -4 56 -10z m-1837 -394 c-11 -3 -59 37 -59 51 0 5 16 -4
35 -19 19 -15 30 -30 24 -32z m-368 5 c-21 -25 -95 -56 -132 -56 -63 0 -51 13
33 37 46 13 87 28 92 33 15 15 20 2 7 -14z m1123 -212 c22 -21 20 -47 -4 -69
-29 -27 -131 -33 -165 -11 -14 9 -25 20 -25 25 0 4 18 21 40 36 28 19 46 26
64 21 14 -3 28 -2 31 4 9 15 42 12 59 -6z m-692 -196 c18 -25 8 -28 -42 -17
-25 6 -78 9 -117 6 -40 -2 -73 -3 -73 -1 0 1 33 19 73 40 39 20 81 43 92 50
18 13 21 12 37 -23 10 -21 23 -46 30 -55z m-72 -54 c70 -16 337 -105 410 -136
68 -29 110 -66 131 -114 17 -37 18 -49 8 -88 -12 -50 -60 -123 -99 -154 -43
-34 -92 -42 -162 -27 -126 26 -234 70 -348 142 -96 61 -138 112 -154 190 -15
67 34 161 99 189 38 17 37 17 115 -2z"/>
<path d="M3053 6185 c0 -8 4 -12 9 -9 5 3 6 10 3 15 -9 13 -12 11 -12 -6z"/>
<path d="M4370 5494 c-48 -17 -110 -49 -110 -56 0 -13 76 -45 146 -62 58 -15
279 -46 319 -46 29 1 -88 110 -151 141 -48 23 -166 37 -204 23z"/>
<path d="M2970 5200 c-76 -11 -183 -37 -225 -54 -66 -28 -35 -32 58 -8 132 34
314 35 407 2 36 -13 75 -30 88 -38 19 -12 22 -12 20 -1 -2 8 7 15 20 17 48 7
17 28 -81 55 -113 31 -204 40 -287 27z"/>
<path d="M4354 5196 c-39 -8 -80 -19 -92 -25 -11 -6 -30 -11 -42 -11 -18 0
-20 -4 -14 -22 3 -13 8 -24 9 -26 1 -1 23 6 48 17 128 55 292 47 404 -19 40
-24 53 -25 53 -6 0 18 -71 60 -136 79 -79 23 -152 27 -230 13z"/>
<path d="M4380 5009 c-73 -12 -150 -51 -194 -97 -40 -40 -43 -50 -21 -58 11
-5 15 -23 15 -78 0 -127 37 -209 113 -247 82 -42 166 -2 222 106 26 51 30 69
30 138 l-1 78 36 -6 c68 -13 98 -34 123 -88 24 -50 25 -50 37 -26 7 13 19 30
27 37 17 17 6 32 -45 64 l-36 22 35 9 c47 12 93 49 113 90 9 19 16 39 16 44 0
4 -35 9 -77 9 -43 1 -136 4 -208 7 -71 3 -155 2 -185 -4z m-24 -184 c28 -43
14 -55 -71 -55 -73 0 -75 1 -75 24 0 38 25 56 80 56 42 0 52 -4 66 -25z"/>
<path d="M2790 4995 c-69 -8 -141 -12 -160 -10 -25 4 -31 3 -20 -4 18 -12 12
-15 -72 -31 -35 -7 -58 -17 -58 -24 0 -32 101 -85 163 -86 20 0 37 -4 37 -8 0
-4 -17 -14 -37 -21 -73 -25 -123 -60 -123 -85 0 -49 23 -50 107 -7 43 22 75
40 70 41 -4 0 -39 -16 -77 -35 -40 -20 -72 -31 -75 -25 -3 6 0 10 7 10 7 0 45
18 83 41 39 22 74 41 78 42 5 1 11 -23 14 -53 11 -141 112 -249 231 -250 57 0
103 22 148 72 55 61 74 111 74 199 l0 76 49 -8 c49 -8 111 -43 111 -63 1 -23
18 21 24 62 8 55 -10 90 -63 120 -89 51 -305 70 -511 47z m165 -171 c10 -10
15 -29 13 -48 l-3 -31 -82 -9 c-99 -10 -116 -2 -111 53 l3 36 65 6 c36 3 73 6
82 7 9 1 24 -5 33 -14z"/>
<path d="M3705 4197 c-60 -26 -60 -25 -52 -33 4 -4 33 3 66 15 56 20 62 21 91
6 16 -8 30 -11 30 -6 0 12 -53 41 -72 40 -7 -1 -35 -11 -63 -22z"/>
<path d="M4160 2784 c8 -10 15 -20 16 -22 1 -2 4 1 7 5 3 5 -4 15 -16 23 -21
12 -21 12 -7 -6z"/>
<path d="M4108 2779 c-9 -5 -15 -16 -12 -24 4 -8 10 -12 15 -9 5 3 7 10 3 15
-3 5 0 8 7 7 6 -2 14 3 16 10 6 14 -6 15 -29 1z"/>
<path d="M3810 2776 c0 -2 7 -7 16 -10 8 -3 12 -2 9 4 -6 10 -25 14 -25 6z"/>
<path d="M3950 2766 c0 -21 21 -31 31 -15 5 8 3 17 -4 21 -18 12 -27 10 -27
-6z"/>
<path d="M1591 2308 c-1 -46 -5 -61 -23 -78 l-23 -22 25 4 c22 3 26 10 34 56
6 35 5 60 -2 75 -9 19 -11 13 -11 -35z"/>
</g>
</svg>
