<?xml version="1.0" standalone="no"?>
<!DOCTYPE svg PUBLIC "-//W3C//DTD SVG 20010904//EN"
 "http://www.w3.org/TR/2001/REC-SVG-20010904/DTD/svg10.dtd">
<svg version="1.0" xmlns="http://www.w3.org/2000/svg"
 width="736.000000pt" height="796.000000pt" viewBox="0 0 736.000000 796.000000"
 preserveAspectRatio="xMidYMid meet">

<g transform="translate(0.000000,796.000000) scale(0.100000,-0.100000)"
fill="#000000" stroke="none">
<path d="M3175 7364 c-69 -7 -236 -45 -280 -64 -11 -5 -54 -21 -95 -36 -321
-116 -634 -352 -796 -600 -103 -157 -146 -295 -149 -483 -2 -128 -3 -134 -26
-152 -13 -10 -29 -19 -36 -19 -24 0 -174 -154 -218 -224 -80 -128 -117 -296
-95 -428 32 -193 129 -352 272 -450 63 -42 139 -78 167 -78 16 0 19 -16 24
-157 3 -87 11 -173 17 -191 12 -33 12 -34 -57 -105 -158 -164 -216 -296 -217
-494 l-1 -112 -74 76 -74 77 12 43 c27 105 4 189 -57 205 -21 6 -52 0 -94 -17
-13 -5 -18 -2 -18 10 0 51 -75 125 -126 125 -30 0 -73 -41 -85 -81 l-12 -39
-47 6 c-43 6 -50 3 -81 -24 -28 -25 -33 -37 -34 -75 l0 -45 -52 5 c-46 5 -54
3 -77 -20 -34 -34 -34 -80 -1 -149 42 -87 68 -126 130 -195 32 -36 90 -113
128 -171 125 -190 162 -245 240 -357 42 -60 80 -114 84 -120 5 -5 16 -21 25
-35 10 -14 35 -50 57 -80 115 -158 133 -196 108 -222 -24 -25 -95 -123 -111
-155 -27 -53 -21 -67 33 -87 27 -9 67 -34 89 -54 37 -35 112 -147 157 -236 23
-44 59 -76 87 -76 39 0 91 43 123 103 9 15 21 27 28 27 6 -1 55 -73 107 -162
52 -88 107 -177 123 -196 15 -19 27 -38 27 -41 0 -3 -125 -7 -278 -9 -346 -4
-366 -9 -494 -121 -23 -21 -53 -64 -75 -109 -33 -69 -37 -86 -42 -186 l-6
-111 -45 2 c-25 1 -137 9 -250 18 -473 38 -474 38 -531 9 -35 -17 -86 -76
-104 -121 -24 -56 -20 -238 6 -307 26 -72 83 -122 148 -132 41 -7 172 1 486
26 55 5 144 12 198 16 l97 7 0 -91 c0 -191 81 -328 240 -405 l65 -32 1685 0
1685 0 60 30 c109 55 192 158 224 280 6 22 11 79 11 127 0 48 4 89 8 92 5 3
58 1 118 -5 60 -5 159 -14 219 -19 61 -6 155 -14 210 -19 174 -17 265 -14 310
10 22 12 46 30 53 40 7 10 19 24 26 32 40 40 48 292 12 369 -21 44 -59 84
-101 106 -36 18 -167 19 -345 3 -200 -19 -495 -39 -502 -34 -5 2 -8 46 -8 96
0 155 -46 256 -154 341 -89 70 -148 86 -318 86 -84 0 -138 4 -138 10 0 5 9 33
20 62 52 138 29 319 -56 433 l-23 30 33 60 32 60 95 7 c52 4 114 11 139 17 70
16 75 13 38 -22 -50 -46 -80 -93 -113 -171 -27 -63 -29 -80 -29 -180 0 -98 3
-118 26 -167 39 -85 120 -138 213 -139 22 0 49 -6 60 -14 51 -35 98 -55 166
-71 117 -26 228 -3 325 67 223 160 244 589 39 794 -31 31 -54 58 -51 61 13 13
205 -46 304 -94 48 -24 57 -9 57 95 -1 97 -12 126 -67 179 -81 78 -271 114
-382 74 -12 -5 -34 -11 -49 -15 -26 -6 -27 -5 -16 15 17 32 105 116 140 134
16 9 52 19 80 22 73 9 61 27 -14 21 -91 -8 -175 -68 -236 -170 -13 -21 -26
-38 -30 -38 -12 0 -51 45 -51 59 0 7 11 22 24 32 27 21 83 95 113 149 46 81
58 139 57 273 0 98 3 126 13 123 7 -3 45 -8 85 -11 71 -6 147 2 237 25 50 12
189 77 209 97 7 7 18 13 23 13 16 0 162 151 179 185 8 17 17 32 20 35 3 3 14
25 24 50 10 25 22 54 27 65 5 11 13 53 18 94 10 75 3 143 -21 226 -12 40 -81
179 -100 202 -7 9 4 28 43 70 69 76 111 143 139 223 77 223 67 466 -31 734
-133 362 -405 617 -695 651 l-61 7 -6 136 c-6 139 -9 154 -54 300 -56 178
-206 378 -368 489 -190 129 -484 199 -691 163 -118 -21 -161 -33 -266 -76
-132 -54 -178 -57 -258 -15 -145 77 -191 99 -241 116 -30 11 -58 22 -64 26 -5
3 -44 14 -85 23 -41 9 -92 22 -114 27 -39 11 -330 20 -401 13z m315 -68 c203
-33 293 -62 484 -159 166 -84 213 -93 311 -57 87 33 252 86 308 99 89 21 288
6 407 -31 98 -30 244 -105 296 -153 45 -40 123 -117 141 -139 40 -46 118 -179
145 -246 53 -132 62 -184 62 -355 0 -102 4 -163 10 -167 6 -4 41 -8 78 -8 37
0 77 -4 90 -9 13 -5 48 -17 78 -27 127 -41 280 -172 383 -326 31 -48 57 -89
57 -92 0 -3 11 -29 25 -58 72 -157 101 -265 121 -460 7 -69 -2 -139 -34 -253
-32 -118 -111 -233 -208 -303 -77 -56 -85 -84 -29 -108 34 -14 77 -70 113
-144 79 -167 45 -363 -91 -516 -62 -69 -188 -154 -263 -177 -147 -44 -164 -47
-267 -48 -90 0 -112 3 -128 17 -10 9 -19 22 -19 27 0 6 -7 18 -15 27 -12 13
-13 23 -6 44 6 14 8 33 5 41 -8 19 -34 20 -34 1 0 -25 -19 -28 -49 -7 -55 40
-118 53 -223 49 -63 -2 -98 0 -98 7 0 10 -11 32 -50 100 -12 22 -48 85 -78
140 -87 156 -258 384 -367 490 -221 213 -385 335 -635 467 -64 34 -222 100
-270 113 -14 3 -34 10 -45 15 -25 11 -208 55 -300 72 -95 17 -423 17 -495 0
-30 -7 -84 -20 -119 -28 -35 -9 -75 -20 -90 -26 -14 -6 -35 -14 -46 -18 -165
-64 -267 -130 -399 -258 -80 -78 -178 -236 -192 -310 -4 -18 -11 -31 -18 -29
-20 7 -27 91 -22 272 4 157 8 194 34 293 17 64 48 149 71 194 23 44 41 84 41
89 0 16 -46 10 -62 -8 -62 -72 -148 -321 -148 -430 0 -19 -5 -33 -12 -33 -28
0 -151 86 -210 148 -86 90 -132 164 -162 264 -44 144 -31 279 40 426 48 97
159 215 247 262 37 19 68 42 70 50 1 8 -1 40 -6 70 -17 109 14 297 70 422 117
262 440 537 795 677 273 107 495 141 708 107z m-170 -2186 c91 -10 153 -22
265 -50 197 -50 415 -151 415 -193 0 -5 17 -37 38 -71 110 -175 216 -426 256
-606 10 -41 22 -95 29 -120 7 -28 12 -123 12 -252 -1 -242 14 -255 22 -20 4
139 -1 226 -23 377 l-6 40 24 -29 c12 -16 53 -58 90 -94 36 -35 68 -74 71 -86
3 -11 17 -59 32 -106 53 -168 119 -404 135 -485 4 -22 12 -62 18 -90 6 -27 16
-113 22 -189 11 -128 10 -187 -7 -319 l-6 -49 -81 -38 c-150 -71 -280 -119
-426 -160 -96 -27 -146 -41 -175 -50 -16 -5 -52 -12 -80 -16 -27 -4 -61 -11
-73 -15 -13 -5 -63 -11 -110 -14 -96 -5 -123 -10 -197 -30 -27 -8 -67 -17 -88
-20 -28 -4 -40 -13 -47 -30 -10 -26 -41 -65 -52 -65 -3 0 -12 16 -19 35 -8 22
-21 37 -34 40 -11 2 -31 6 -45 9 -71 14 -208 60 -300 100 -39 17 -174 67 -265
97 -72 24 -192 67 -220 79 -11 5 -51 23 -88 39 -38 17 -73 31 -78 31 -5 0 -9
5 -9 10 0 6 -5 10 -10 10 -25 0 -128 77 -204 153 -110 109 -139 169 -140 287
-1 103 15 165 66 248 48 79 51 94 40 212 -13 142 2 346 43 590 41 244 50 320
39 320 -5 0 -16 -15 -24 -33 -16 -35 -55 -53 -44 -20 19 54 236 301 319 363
231 173 569 250 915 210z m-1250 -660 c-12 -23 -30 -27 -30 -7 0 17 10 27 27
27 11 0 11 -5 3 -20z m2514 -1 c26 -20 35 -48 16 -50 -54 -7 -73 -3 -83 18 -7
16 -6 27 3 38 17 20 32 19 64 -6z m-2594 -74 c8 -21 4 -34 -20 -74 -17 -26
-30 -51 -30 -54 0 -4 -17 -35 -38 -69 -73 -121 -125 -255 -153 -397 -20 -106
-40 -46 -40 119 1 134 24 205 110 330 47 69 138 170 153 170 5 0 13 -11 18
-25z m-715 -151 c9 -4 31 -30 50 -60 l34 -53 -19 -38 c-27 -57 -35 -109 -17
-116 21 -8 31 2 67 68 35 64 55 84 82 85 14 0 18 -15 23 -89 l7 -90 82 -113
c44 -63 98 -134 119 -159 20 -26 37 -52 37 -60 0 -25 29 -98 52 -134 27 -40
84 -75 123 -75 25 0 27 -2 20 -27 -4 -16 -9 -66 -12 -113 -4 -73 -1 -95 22
-160 14 -41 28 -82 31 -90 3 -10 -14 -29 -53 -57 -76 -54 -108 -79 -164 -130
-47 -44 -69 -53 -69 -30 0 11 -34 64 -140 217 -42 60 -148 216 -184 270 -154
228 -261 366 -297 382 -16 7 -29 18 -29 23 0 6 -24 51 -53 101 -94 159 -103
189 -63 200 26 6 63 -11 110 -50 29 -24 29 -25 13 -50 -34 -50 -12 -78 24 -32
11 14 65 57 119 97 64 46 100 79 100 91 0 21 -1 21 -34 8 -23 -9 -26 -7 -36
28 -19 68 -9 132 24 154 13 9 11 9 31 2z m-152 -118 c12 -13 34 -37 50 -53 15
-16 27 -34 27 -39 -1 -10 -85 -74 -98 -74 -10 0 -62 109 -62 131 0 17 36 59
51 59 5 0 20 -11 32 -24z m723 -221 c-4 -19 -13 -47 -21 -62 -13 -25 -15 -26
-15 -6 0 12 4 24 9 27 5 3 12 22 15 41 4 19 9 35 13 35 3 0 2 -16 -1 -35z
m3521 -196 c71 -27 132 -87 169 -166 25 -51 28 -70 28 -164 1 -58 -4 -117 -10
-130 -6 -13 -19 -42 -28 -63 -30 -68 -105 -164 -169 -214 -111 -88 -282 -164
-393 -175 -58 -6 -73 0 -68 28 2 11 9 47 15 80 17 90 23 437 10 520 -24 145
-24 135 -2 135 11 0 40 22 65 48 25 27 55 53 68 59 138 68 217 78 315 42z
m-437 -98 c0 -24 -26 -47 -33 -29 -5 16 10 48 23 48 6 0 10 -8 10 -19z m-3011
-158 c2 -2 -4 -3 -13 -3 -20 0 -76 52 -76 71 0 7 19 -5 42 -26 24 -22 45 -41
47 -42z m162 -545 c88 -84 131 -115 242 -173 20 -11 37 -23 37 -26 0 -4 -34
-44 -76 -90 -42 -46 -88 -100 -102 -119 -26 -34 -226 -278 -256 -312 -27 -31
-42 -20 -81 55 -71 134 -189 277 -231 277 -18 0 -17 4 2 43 39 77 196 240 325
337 18 14 42 33 53 42 12 10 24 17 27 18 3 0 30 -24 60 -52z m3359 -128 c0
-60 -5 -90 -19 -118 -36 -69 -117 -128 -187 -134 -59 -5 -55 21 8 59 65 40 83
56 127 112 20 26 35 56 36 75 4 79 5 86 20 86 12 0 15 -16 15 -80z m-3022 -89
c38 -20 91 -41 104 -41 8 0 18 -4 24 -8 5 -4 36 -16 69 -26 33 -10 69 -22 80
-27 11 -4 47 -15 80 -25 84 -23 85 -24 106 -79 24 -63 95 -154 159 -202 54
-42 63 -63 26 -63 -39 0 -170 -32 -184 -44 -7 -7 -17 -41 -22 -77 -6 -35 -18
-107 -27 -160 l-17 -96 -90 -7 c-121 -8 -348 -7 -362 2 -6 4 -25 32 -41 62
-51 91 -203 333 -225 357 l-21 22 130 173 c71 95 140 190 152 211 24 39 31 43
59 28z m3251 -110 c34 -36 68 -76 73 -90 39 -98 50 -135 58 -204 5 -46 6 -87
0 -100 -8 -21 -9 -21 -9 -1 -1 29 -28 110 -59 174 -44 93 -101 172 -175 241
-48 45 -68 71 -64 82 10 26 103 -28 176 -102z m-1290 -41 c9 -4 34 -16 56 -26
22 -11 42 -22 45 -25 3 -3 26 -20 53 -38 26 -17 47 -34 47 -37 0 -2 -21 -45
-47 -96 -43 -83 -48 -99 -52 -171 -5 -126 23 -189 102 -227 50 -24 47 -24 47
-1 0 11 -8 22 -18 25 -51 17 -74 146 -38 221 25 53 95 137 108 129 24 -15 78
-174 78 -229 0 -27 -20 -106 -45 -176 -18 -51 -104 -161 -162 -205 -64 -49
-101 -73 -106 -68 -3 3 -3 23 0 44 3 22 1 52 -5 67 -5 16 -18 55 -27 87 -10
33 -30 82 -46 110 -15 28 -35 65 -44 82 -9 18 -49 67 -90 110 -41 43 -72 81
-69 83 2 3 25 0 49 -7 55 -15 95 -15 95 -2 0 22 -52 42 -124 47 -42 3 -76 9
-76 13 0 3 12 35 26 70 18 45 22 66 14 74 -7 7 -16 7 -26 1 -19 -12 -64 -89
-64 -109 0 -7 -15 -16 -32 -20 -71 -14 -399 -149 -437 -179 -15 -12 -62 -11
-129 4 -24 5 -104 10 -178 10 -173 0 -220 -14 -314 -93 -38 -32 -71 -58 -75
-58 -7 0 4 103 16 151 8 32 14 38 47 43 20 4 73 18 117 32 44 14 91 23 105 20
14 -3 57 -12 95 -21 119 -28 265 -12 382 41 17 8 34 14 37 14 14 0 152 99 176
126 25 29 60 93 60 112 0 9 50 25 115 36 39 7 162 35 200 46 32 9 107 4 134
-10z m-1387 -38 c21 -5 57 -20 80 -33 101 -53 159 -79 194 -87 33 -7 41 -14
54 -47 20 -54 28 -65 47 -65 18 0 103 88 103 107 0 7 12 15 28 19 15 3 68 17
119 30 107 28 264 56 271 49 7 -7 -42 -76 -81 -112 -38 -37 -160 -103 -237
-129 -69 -23 -242 -26 -315 -5 -140 40 -281 150 -344 270 -13 23 -12 23 15 18
16 -3 46 -10 66 -15z m1596 2 c12 -4 22 -13 22 -20 0 -19 -14 -17 -41 6 -25
20 -20 24 19 14z m459 -87 c-70 -146 -35 -389 74 -528 16 -20 29 -39 29 -43 0
-9 -63 6 -100 25 -92 46 -124 114 -124 266 0 62 5 117 11 125 6 7 13 26 17 41
11 48 91 165 104 152 3 -2 -3 -20 -11 -38z m346 -25 c3 -15 10 -45 16 -67 6
-22 11 -55 11 -72 0 -27 -5 -34 -25 -39 -14 -4 -28 -5 -30 -3 -5 6 -9 96 -7
161 2 45 5 56 16 52 8 -3 16 -17 19 -32z m310 -45 c40 -84 67 -193 67 -269 0
-60 -39 -140 -86 -177 -31 -24 -45 -20 -21 7 55 61 89 362 41 362 -8 0 -14 -4
-14 -10 0 -19 -46 -10 -67 13 -23 26 -35 64 -22 73 5 3 9 17 9 31 0 28 26 54
47 46 7 -3 28 -37 46 -76z m-139 7 c9 -23 7 -64 -2 -64 -15 0 -32 24 -32 45 0
35 23 48 34 19z m-1481 -184 c153 -97 273 -292 312 -508 l17 -92 -24 -20 c-91
-74 -309 -137 -393 -112 -30 9 -30 9 -27 73 4 80 -19 225 -49 304 -34 93 -68
137 -166 216 -7 5 -27 12 -45 16 -18 3 -42 11 -53 16 -19 10 -18 11 10 18 17
4 95 32 175 62 80 30 156 56 171 56 14 1 46 -12 72 -29z m-688 -135 c55 -8
144 -15 197 -15 l97 0 55 -52 c72 -69 121 -171 141 -293 21 -131 21 -135 -16
-135 -49 0 -238 29 -299 47 -106 29 -143 44 -259 103 -150 76 -269 130 -286
130 -8 0 -17 5 -20 10 -3 6 -14 10 -24 10 -9 0 -26 7 -37 15 -18 14 -16 18 46
76 75 71 119 96 192 108 77 13 102 12 213 -4z m-417 -286 c47 -21 86 -37 132
-57 14 -6 90 -42 170 -80 80 -38 168 -77 195 -87 77 -26 201 -45 295 -45 85
-1 85 -1 105 -33 33 -53 94 -77 195 -77 150 0 272 53 338 148 13 17 32 32 43
32 39 0 145 66 213 133 l69 68 146 0 c157 1 209 -10 280 -56 61 -40 111 -106
136 -178 13 -39 15 -105 12 -464 -2 -243 -8 -435 -14 -458 -22 -88 -106 -185
-183 -211 -94 -33 -180 -34 -1770 -32 l-1595 3 -55 28 c-90 47 -137 92 -172
165 l-32 67 -4 417 c-3 369 -2 423 13 475 21 70 72 143 129 182 84 58 103 60
571 69 737 15 728 15 783 -9z m-2178 -479 c58 -6 193 -17 300 -25 301 -24 299
-24 307 -53 5 -21 -4 -292 -10 -298 -3 -3 -211 -24 -332 -34 -60 -4 -171 -14
-245 -21 -75 -6 -152 -9 -172 -5 -53 10 -93 56 -107 123 -14 70 -14 200 -1
208 6 3 10 14 10 24 0 23 50 70 86 81 38 11 41 11 164 0z m5435 -30 c50 -49
58 -76 53 -192 -4 -124 -24 -171 -82 -201 -37 -19 -46 -20 -185 -8 -232 19
-357 30 -496 44 l-130 12 -3 163 c-2 149 -1 162 15 163 10 0 29 2 43 4 14 2
93 8 175 15 224 16 407 31 430 35 11 2 49 2 83 0 56 -2 68 -7 97 -35z"/>
<path d="M3180 6295 c0 -19 4 -44 9 -57 5 -13 17 -50 27 -83 10 -33 31 -80 46
-105 15 -24 25 -46 23 -49 -7 -6 -79 46 -105 76 -12 14 -32 42 -44 62 -25 43
-36 20 -13 -26 20 -37 80 -103 95 -103 7 0 12 -7 12 -15 0 -10 -10 -15 -32
-15 -75 0 -314 -74 -451 -139 -106 -50 -223 -119 -297 -176 -121 -93 -244
-236 -202 -235 4 0 27 18 51 40 25 22 47 40 50 40 3 0 22 15 41 33 95 89 331
232 495 299 72 29 213 67 330 87 28 5 63 14 78 20 23 9 39 8 77 -6 42 -15 56
-16 95 -5 118 31 375 5 570 -59 72 -23 145 -44 163 -47 19 -2 41 -15 52 -30
15 -19 24 -22 32 -14 8 8 6 41 -6 124 -15 102 -15 122 -2 203 8 50 19 108 25
130 14 52 14 55 -3 55 -32 0 -86 -181 -86 -290 0 -27 5 -71 12 -99 6 -28 9
-54 5 -57 -4 -4 -22 5 -41 19 -97 74 -370 137 -533 123 -48 -5 -73 -3 -73 4 0
5 4 10 10 10 27 0 188 269 175 291 -13 20 -44 8 -57 -21 -7 -16 -16 -30 -19
-30 -4 0 -10 -8 -13 -17 -15 -43 -109 -175 -144 -205 -70 -59 -140 -61 -192
-5 -34 36 -111 188 -131 260 -16 55 -29 61 -29 12z"/>
<path d="M4446 5935 c-11 -19 -45 -60 -78 -91 -32 -30 -58 -57 -58 -60 0 -2 9
-4 21 -4 31 0 172 -69 270 -131 46 -29 86 -56 89 -59 3 -3 48 -40 102 -83 53
-42 134 -118 181 -167 91 -95 217 -251 217 -268 0 -6 3 -12 8 -14 16 -7 129
-204 171 -298 116 -262 167 -549 153 -853 -4 -77 -4 -144 0 -150 10 -16 35 8
41 41 3 15 11 47 18 72 7 26 12 110 12 203 0 86 3 157 6 157 3 0 27 -7 52 -14
52 -16 114 -8 153 20 19 14 14 14 -57 8 -63 -6 -85 -4 -117 11 -41 18 -42 22
-55 117 -6 46 -5 48 22 54 86 19 113 29 162 62 63 42 120 115 121 155 0 38
-14 34 -49 -16 -41 -61 -105 -115 -165 -143 -78 -35 -102 -39 -109 -17 -3 10
-15 52 -26 93 -12 41 -25 84 -30 95 -5 11 -21 52 -37 90 -15 39 -49 111 -75
161 l-47 91 54 6 c58 6 164 49 164 66 0 16 -26 13 -68 -8 -40 -20 -78 -30
-133 -37 -30 -4 -38 0 -49 21 -7 14 -11 26 -9 28 2 1 31 16 64 32 125 62 248
216 285 358 14 52 9 182 -8 199 -10 10 -14 -5 -28 -122 -6 -50 -18 -84 -61
-180 -19 -40 -72 -109 -123 -158 -37 -37 -133 -102 -148 -102 -5 0 -36 35 -68
78 -186 248 -440 454 -679 550 -44 18 -88 37 -97 42 -10 6 -27 10 -38 10 -13
0 -20 7 -20 20 0 11 4 20 9 20 15 0 89 94 96 123 10 40 -16 35 -39 -8z"/>
<path d="M1953 5796 c15 -95 145 -307 210 -343 55 -30 50 6 -11 82 -55 69 -94
132 -140 228 -37 75 -69 93 -59 33z"/>
<path d="M1927 5594 c-9 -9 24 -63 64 -104 38 -38 72 -60 124 -80 47 -18 28
14 -29 48 -58 36 -101 72 -133 114 -11 15 -23 25 -26 22z"/>
<path d="M2534 4302 c-49 -21 -87 -50 -102 -79 -30 -55 0 -69 65 -30 84 49
143 57 228 32 74 -23 123 -62 172 -137 23 -38 47 -68 52 -68 6 0 13 15 16 34
5 25 0 47 -21 90 -53 108 -154 169 -289 173 -59 2 -91 -2 -121 -15z"/>
<path d="M3730 4175 c-116 -32 -235 -120 -228 -170 5 -32 29 -28 97 16 122 80
226 101 351 74 104 -23 144 -24 148 -3 4 20 -67 70 -124 86 -52 15 -185 13
-244 -3z"/>
<path d="M2586 4015 c-76 -27 -135 -109 -158 -219 -22 -105 35 -235 122 -278
119 -59 253 13 296 159 18 61 12 81 -16 53 -23 -23 -63 -26 -78 -7 -20 24 -24
75 -8 105 21 40 48 45 79 16 15 -13 29 -24 32 -24 15 0 -9 69 -41 118 -54 83
-135 110 -228 77z m104 -270 c20 -24 4 -65 -25 -65 -33 0 -49 30 -29 58 18 26
37 28 54 7z"/>
<path d="M3640 3823 c-80 -39 -130 -71 -130 -85 0 -19 30 -19 50 0 27 25 116
68 160 76 49 10 90 27 90 37 0 5 -21 9 -47 9 -35 0 -69 -11 -123 -37z"/>
<path d="M2861 3774 c0 -11 3 -14 6 -6 3 7 2 16 -1 19 -3 4 -6 -2 -5 -13z"/>
<path d="M3670 3771 c-66 -20 -106 -40 -142 -75 -35 -31 -35 -49 -2 -71 26
-17 29 -16 93 9 54 21 83 26 153 26 48 0 100 -5 115 -11 81 -33 122 -60 186
-122 39 -38 77 -67 86 -65 17 4 20 52 6 119 -6 31 -4 37 13 41 21 6 58 65 48
76 -4 3 -20 -9 -37 -26 -17 -18 -37 -32 -44 -32 -8 0 -37 21 -67 46 -29 25
-66 52 -83 59 -98 47 -223 57 -325 26z"/>
<path d="M4317 3586 c-4 -10 -5 -21 -2 -24 9 -9 17 6 13 25 -3 17 -4 17 -11
-1z"/>
<path d="M2840 3368 c0 -18 81 -60 170 -88 84 -28 230 -37 309 -20 68 14 121
43 121 65 0 18 2 18 -50 0 -102 -36 -387 -9 -532 50 -12 5 -18 2 -18 -7z"/>
<path d="M2207 3298 c-33 -26 -44 -99 -13 -98 35 1 72 60 56 90 -12 23 -20 25
-43 8z"/>
<path d="M2296 3262 c-10 -19 -11 -33 -5 -43 8 -12 13 -10 29 10 23 27 26 61
5 61 -8 0 -21 -13 -29 -28z"/>
<path d="M4222 3130 c-14 -23 -16 -50 -4 -50 14 0 42 35 42 53 0 23 -22 21
-38 -3z"/>
<path d="M4323 3123 c-24 -16 -31 -47 -13 -58 13 -8 50 31 50 55 0 24 -7 24
-37 3z"/>
<path d="M1281 3901 c-25 -16 -27 -151 -3 -151 5 0 14 23 20 51 20 84 14 119
-17 100z"/>
<path d="M5245 3261 c-77 -19 -175 -101 -175 -146 0 -35 19 -32 81 15 30 22
56 40 59 40 3 0 14 -14 24 -30 13 -23 16 -41 11 -69 -7 -43 6 -61 30 -41 21
17 19 95 -2 131 -9 15 -14 31 -11 35 10 9 49 9 76 0 19 -6 22 -4 22 17 0 14
-6 29 -12 35 -19 15 -69 21 -103 13z"/>
<path d="M6733 5338 c-5 -7 -15 -32 -23 -55 -7 -23 -28 -58 -47 -79 l-35 -36
46 -45 c25 -24 46 -49 46 -56 0 -19 21 -36 36 -30 8 3 14 9 14 14 0 25 55 92
86 105 27 12 35 20 32 37 -2 16 -11 23 -33 25 -40 5 -52 16 -80 79 -27 58 -28
59 -42 41z m34 -180 c-25 -34 -28 -34 -56 -4 l-23 25 27 36 28 35 22 -32 22
-33 -20 -27z"/>
<path d="M814 4783 c1 -49 -4 -97 -10 -107 -6 -10 -9 -27 -7 -37 5 -16 15 -19
67 -19 38 -1 68 -6 80 -15 11 -8 30 -15 42 -15 20 0 23 6 27 63 3 34 8 73 12
87 6 24 2 27 -47 44 -55 20 -122 58 -133 76 -3 5 -12 10 -19 10 -8 0 -12 -25
-12 -87z m114 -14 c51 -23 53 -25 47 -54 -4 -16 -8 -37 -9 -45 -2 -9 -11 -13
-22 -11 -11 2 -42 5 -70 8 l-51 5 16 64 c9 35 21 62 26 60 6 -2 34 -15 63 -27z"/>
<path d="M6402 3038 c-28 -57 -54 -99 -71 -117 -12 -13 -10 -16 10 -25 68 -27
85 -39 101 -66 23 -40 41 -38 57 5 7 19 28 48 47 63 41 33 43 49 7 63 -38 14
-72 48 -88 87 -19 43 -37 40 -63 -10z m72 -65 c37 -42 38 -42 19 -67 -19 -27
-38 -33 -48 -16 -4 6 -22 17 -41 25 -30 12 -47 35 -26 35 4 0 16 16 26 35 11
20 22 34 26 33 3 -2 23 -22 44 -45z"/>
<path d="M946 2568 c-2 -7 -9 -38 -15 -68 -6 -30 -13 -65 -17 -77 -4 -14 -2
-23 5 -23 12 0 41 52 41 75 0 22 21 18 53 -10 29 -26 33 -45 16 -93 -11 -32
-11 -32 -65 -26 -45 6 -54 4 -54 -9 0 -20 92 -51 126 -43 19 5 27 17 37 53 7
27 21 52 34 61 37 23 28 45 -29 76 -49 27 -98 71 -98 89 0 12 -30 8 -34 -5z"/>
</g>
</svg>
