<?xml version="1.0" standalone="no"?>
<!DOCTYPE svg PUBLIC "-//W3C//DTD SVG 20010904//EN"
 "http://www.w3.org/TR/2001/REC-SVG-20010904/DTD/svg10.dtd">
<svg version="1.0" xmlns="http://www.w3.org/2000/svg"
 width="720.000000pt" height="720.000000pt" viewBox="0 0 720.000000 720.000000"
 preserveAspectRatio="xMidYMid meet">

<g transform="translate(0.000000,720.000000) scale(0.100000,-0.100000)"
fill="#000000" stroke="none">
<path d="M2090 6829 c-295 -22 -556 -88 -775 -196 -311 -154 -488 -359 -518
-598 -41 -330 255 -663 724 -814 233 -75 397 -102 673 -110 l209 -6 26 -50
c43 -82 70 -115 96 -115 27 0 90 67 138 147 21 35 41 55 57 59 261 62 336 87
490 163 106 52 131 69 235 152 129 104 203 200 252 327 22 57 26 84 27 182 1
96 -3 126 -23 183 -58 169 -224 344 -434 455 -348 185 -720 255 -1177 221z
m505 -75 c517 -66 926 -306 1047 -613 32 -81 32 -241 0 -325 -47 -128 -136
-237 -279 -345 -148 -112 -446 -232 -659 -266 -36 -6 -44 -12 -82 -73 -58 -93
-89 -129 -101 -117 -5 6 -24 37 -41 70 -18 33 -37 66 -42 73 -8 9 -57 12 -183
12 -710 0 -1289 288 -1389 691 -20 81 -20 135 -1 218 36 150 116 259 288 388
319 241 903 357 1442 287z"/>
<path d="M1965 6257 c-129 -57 -187 -146 -185 -286 1 -146 84 -238 320 -356
178 -89 226 -88 411 6 125 64 135 70 170 102 10 9 22 17 25 17 13 0 55 56 82
109 23 47 27 67 27 136 -1 87 -25 165 -52 165 -7 0 -12 3 -11 8 4 11 -38 62
-51 62 -6 0 -11 3 -11 8 0 4 -26 18 -58 31 -48 19 -72 22 -133 18 -85 -4 -102
-8 -158 -35 -40 -20 -42 -20 -79 -2 -97 47 -213 54 -297 17z"/>
<path d="M4695 4804 c-264 -20 -484 -73 -662 -162 -56 -28 -59 -28 -103 -14
-52 16 -319 28 -404 18 -70 -9 -117 -40 -130 -86 -5 -19 -10 -36 -11 -37 -1
-2 -36 -8 -79 -14 -73 -11 -79 -11 -107 10 -50 37 -203 110 -296 142 -178 60
-314 81 -570 86 -248 6 -382 -3 -556 -38 -101 -20 -234 -58 -292 -84 -16 -7
-50 -21 -75 -31 -60 -23 -172 -88 -241 -140 -83 -61 -90 -64 -181 -64 -269 0
-515 -89 -530 -191 -15 -104 74 -402 162 -538 l30 -48 -16 -134 c-12 -99 -15
-177 -11 -299 6 -166 18 -240 57 -360 90 -273 304 -482 545 -533 30 -6 55 -14
55 -18 0 -4 -17 -36 -39 -71 -89 -147 -154 -301 -188 -446 -25 -109 -23 -295
4 -377 11 -32 25 -61 30 -62 15 -5 25 89 27 252 2 146 9 184 63 328 54 146
169 352 201 361 9 3 42 5 72 5 89 1 202 18 217 34 19 18 9 54 -16 62 -10 3
-38 1 -62 -4 -65 -15 -254 -13 -334 4 -209 44 -385 200 -480 424 -65 155 -93
373 -76 598 6 74 13 138 16 143 3 5 12 7 20 4 12 -5 35 23 35 44 0 5 -11 21
-23 36 -96 112 -217 420 -217 554 0 25 6 45 18 54 69 62 232 98 472 105 109 3
178 10 182 16 4 6 5 23 2 37 -4 22 3 30 55 63 235 150 508 228 869 247 513 28
914 -87 1177 -337 76 -73 86 -87 100 -150 7 -32 21 -86 30 -121 18 -62 18 -63
-3 -115 -12 -29 -34 -102 -48 -162 -23 -97 -26 -134 -29 -320 -2 -154 -7 -227
-19 -275 -9 -36 -19 -105 -22 -155 l-7 -90 -71 -35 c-39 -19 -72 -41 -74 -47
-6 -21 38 -15 95 12 l53 24 6 -27 c29 -137 92 -272 155 -331 16 -16 29 -31 29
-35 0 -22 -197 -89 -353 -121 -25 -5 -28 -10 -25 -38 3 -30 6 -32 45 -35 49
-4 63 -22 111 -142 41 -104 56 -205 44 -306 -10 -84 -27 -129 -67 -178 l-24
-30 -50 24 c-62 28 -58 12 -66 309 -5 218 -11 251 -39 251 -32 -1 -34 -14 -25
-255 4 -132 11 -255 15 -273 5 -25 22 -44 68 -80 122 -93 151 -145 144 -266
-5 -101 -36 -147 -129 -194 -105 -53 -356 -88 -468 -66 -17 4 -45 20 -61 37
-26 26 -30 39 -30 83 0 85 57 135 177 158 51 9 69 17 71 30 9 43 -51 50 -163
19 -47 -13 -71 -28 -107 -65 -27 -26 -48 -54 -48 -63 0 -21 -13 -19 -35 5 -32
35 -81 60 -179 91 -95 29 -120 30 -130 3 -12 -31 12 -51 81 -68 153 -37 213
-90 213 -185 0 -48 -4 -57 -34 -85 -79 -75 -242 -81 -618 -24 l-77 11 -25 61
c-24 61 -39 74 -65 57 -11 -7 -11 -16 2 -55 l16 -46 -26 0 c-15 0 -65 8 -113
17 -75 14 -94 14 -134 3 -26 -7 -49 -16 -51 -20 -8 -14 108 -49 230 -71 66
-11 124 -23 129 -26 5 -3 6 -38 4 -77 -4 -55 -13 -88 -41 -146 -66 -136 -137
-320 -152 -391 -28 -134 -17 -203 53 -311 30 -47 42 -58 65 -58 15 0 27 2 27
4 0 3 -18 32 -41 66 -63 96 -72 124 -66 210 7 104 74 294 172 489 30 58 38 87
41 138 1 36 4 67 6 68 2 2 64 -5 138 -15 206 -28 297 -33 384 -21 128 18 211
66 243 139 13 31 15 32 31 16 9 -10 36 -26 60 -36 51 -23 50 -34 -12 -118 -60
-82 -86 -110 -262 -285 -243 -241 -294 -335 -294 -542 l0 -113 26 0 c26 0 26
0 19 63 -13 121 23 254 97 360 34 49 133 152 269 279 37 34 143 150 169 184
47 61 80 114 80 127 0 11 23 16 103 21 126 9 229 29 325 62 124 44 199 141
210 270 5 71 -15 152 -52 207 l-25 37 28 31 c16 17 42 54 58 83 27 50 28 55
28 196 -1 166 -20 251 -81 354 -39 67 -40 66 41 92 28 9 89 34 137 56 l87 41
78 -30 c43 -17 93 -34 111 -38 17 -3 32 -10 32 -13 0 -4 -18 -27 -40 -51 -88
-100 -146 -265 -137 -397 8 -132 69 -219 191 -273 l49 -21 -21 -23 c-11 -12
-36 -53 -54 -92 -105 -221 38 -413 351 -470 111 -20 248 -19 342 4 l77 18 16
-33 c28 -59 118 -110 227 -128 l36 -6 6 -99 c8 -122 -2 -178 -53 -295 -40 -91
-78 -155 -177 -300 -62 -90 -123 -193 -123 -207 0 -5 11 -9 25 -9 14 0 25 5
25 11 0 12 51 92 157 244 74 107 131 217 169 329 20 59 24 89 24 198 l0 128
43 0 c23 0 87 7 142 16 55 8 150 21 210 29 155 21 215 32 340 61 98 23 201 58
215 73 3 4 17 12 31 20 15 7 54 40 88 73 82 81 117 155 133 280 27 218 -48
485 -212 753 -22 36 -40 69 -40 74 0 5 21 14 48 21 26 7 79 28 118 47 229 106
370 307 431 611 34 171 19 543 -29 703 -10 35 -8 39 36 93 142 175 233 395
202 492 -3 10 -25 31 -48 45 -111 68 -329 122 -550 135 l-108 7 -85 63 c-197
145 -472 251 -730 283 -92 11 -357 21 -430 15z m331 -74 c150 -15 249 -35 382
-76 188 -60 447 -206 454 -257 3 -21 8 -22 145 -29 131 -6 317 -34 403 -59 68
-21 170 -72 175 -88 8 -26 -28 -138 -73 -226 -48 -95 -110 -182 -180 -252 -31
-29 -52 -59 -52 -72 0 -20 4 -23 45 -25 23 -1 28 -21 50 -191 55 -433 -49
-795 -279 -964 -65 -48 -132 -82 -216 -109 -85 -27 -116 -33 -279 -46 -135
-11 -136 -11 -136 -36 l0 -25 130 -2 c72 -1 138 -2 147 -3 39 -1 175 -249 233
-425 94 -287 56 -536 -95 -628 -19 -11 -37 -23 -40 -27 -9 -10 -122 -62 -174
-80 -28 -9 -85 -23 -126 -30 -41 -7 -158 -28 -260 -46 -193 -35 -384 -59 -400
-49 -5 3 -14 21 -20 40 -6 19 -16 35 -21 35 -5 0 -9 13 -9 30 0 16 -7 64 -17
105 -14 66 -18 74 -30 62 -12 -12 -13 -22 -3 -53 15 -55 40 -207 34 -213 -9
-9 -99 20 -136 45 -39 25 -83 96 -74 120 6 16 -10 29 -19 15 -13 -21 -178 -60
-257 -61 -76 0 -202 17 -263 37 -122 39 -204 104 -231 185 -14 43 -15 59 -5
103 16 70 90 185 120 185 6 0 11 15 11 34 0 33 -1 34 -68 55 -92 28 -148 69
-178 134 -60 130 -6 334 125 468 l57 59 76 0 c89 0 108 5 108 31 0 28 -26 36
-145 42 -249 13 -411 107 -501 292 l-39 80 0 170 c0 138 4 182 19 235 13 44
18 84 15 125 -8 111 0 283 16 377 17 100 72 272 112 353 109 218 305 409 533
517 244 116 605 169 936 138z m-1248 -150 c52 -5 97 -12 100 -15 7 -7 -11 -23
-98 -90 -50 -38 -200 -203 -200 -219 0 -11 -73 -126 -80 -126 -26 0 -60 280
-46 373 8 54 20 63 98 76 72 12 116 12 226 1z m-398 -165 c0 -14 -4 -25 -8
-25 -5 0 -19 11 -32 25 l-23 25 31 0 c27 0 32 -4 32 -25z"/>
<path d="M3948 3339 c-60 -9 -107 -37 -115 -68 -13 -51 36 -77 85 -45 40 26
100 22 149 -10 34 -23 45 -26 62 -16 34 18 27 62 -14 99 -31 27 -52 36 -105
45 -8 1 -36 -1 -62 -5z"/>
<path d="M5087 3285 c-78 -27 -111 -87 -65 -119 21 -15 54 -8 69 17 4 5 29 12
55 14 41 4 55 0 87 -21 41 -28 66 -33 85 -14 49 49 -58 139 -163 138 -16 -1
-47 -7 -68 -15z"/>
<path d="M4484 3165 c-10 -8 -38 -15 -61 -15 -44 0 -65 -16 -42 -31 19 -12 70
-11 108 2 28 10 35 9 54 -9 48 -43 113 -56 137 -27 18 21 7 29 -45 30 -37 0
-49 6 -73 33 -32 35 -49 39 -78 17z"/>
<path d="M4215 2320 c-8 -14 23 -120 36 -120 18 0 21 28 7 76 -13 47 -30 65
-43 44z"/>
<path d="M4412 2258 c-25 -49 -28 -68 -8 -68 17 0 56 63 56 91 0 33 -24 21
-48 -23z"/>
<path d="M4803 2216 c8 -56 26 -96 45 -96 12 0 13 11 7 58 -7 61 -18 82 -43
82 -12 0 -14 -9 -9 -44z"/>
<path d="M4981 2156 c-49 -50 -59 -76 -28 -76 23 0 110 97 104 114 -10 25 -19
20 -76 -38z"/>
<path d="M3927 2113 c-28 -27 21 -85 106 -124 43 -21 52 -22 80 -10 50 21 84
24 92 10 11 -16 -30 -49 -61 -49 -36 0 -67 -35 -54 -60 6 -11 16 -20 24 -20
33 0 116 32 140 55 25 23 27 30 21 68 -13 77 -62 101 -148 72 -47 -16 -49 -16
-91 9 -23 14 -48 32 -56 40 -13 16 -41 21 -53 9z"/>
<path d="M5309 2022 c-66 -52 -86 -57 -233 -54 -158 2 -207 -7 -248 -48 -38
-38 -39 -99 -3 -135 21 -22 33 -25 103 -25 95 0 123 18 86 54 -10 11 -34 16
-75 16 -70 0 -89 20 -50 52 20 16 43 18 183 18 142 0 163 2 201 21 77 39 98
59 95 87 -4 33 -27 39 -59 14z"/>
<path d="M5443 1679 c-74 -52 -144 -71 -285 -76 l-126 -5 -5 -27 c-3 -14 -3
-29 0 -33 9 -16 209 -8 286 11 124 32 221 93 215 135 -4 31 -37 30 -85 -5z"/>
<path d="M4782 1481 c-13 -8 -93 -201 -83 -201 18 0 60 51 75 91 9 26 26 55
36 64 11 10 20 22 20 26 0 13 -35 28 -48 20z"/>
<path d="M4357 1461 c-7 -27 31 -81 57 -81 12 0 26 -4 32 -9 17 -16 114 -40
114 -28 0 27 -58 90 -102 113 -58 29 -94 31 -101 5z"/>
<path d="M4952 1420 c-43 -19 -48 -26 -34 -46 10 -16 107 -13 106 4 -1 6 -2
21 -2 31 -3 28 -24 31 -70 11z"/>
<path d="M2975 3389 c-48 -15 -95 -64 -95 -99 0 -8 8 0 17 19 21 42 55 59 92
45 20 -8 30 -7 40 3 20 21 46 12 46 -17 0 -19 -6 -26 -25 -28 -18 -2 -34 -16
-50 -43 -14 -22 -35 -42 -47 -45 -26 -7 -63 11 -63 31 0 8 -5 15 -11 15 -6 0
-8 -7 -5 -16 3 -9 6 -25 6 -36 0 -32 69 -94 113 -102 81 -15 160 54 160 139 0
96 -89 163 -178 134z"/>
<path d="M1783 3298 c-109 -76 -69 -244 62 -264 83 -12 153 43 162 128 10 90
-51 158 -143 158 -35 0 -59 -7 -81 -22z m138 -14 c16 -19 0 -50 -25 -48 -9 1
-26 -12 -38 -30 -39 -58 -72 -71 -102 -40 -23 23 -19 57 10 89 21 23 31 26 59
22 23 -4 38 -1 46 9 15 18 33 18 50 -2z"/>
<path d="M2415 3142 c-17 -15 -41 -35 -55 -44 l-25 -17 30 0 c17 -1 45 8 63
19 32 20 32 20 65 0 34 -21 67 -26 67 -10 0 6 -4 10 -9 10 -5 0 -25 16 -44 35
-42 42 -53 43 -92 7z"/>
<path d="M3005 2943 c-61 -25 -97 -47 -109 -65 -20 -33 5 -30 89 8 59 27 85
44 85 57 0 21 -13 21 -65 0z"/>
<path d="M1245 2877 c-41 -10 -65 -28 -65 -46 0 -16 27 -13 90 9 31 10 56 25
58 34 4 19 -22 20 -83 3z"/>
<path d="M1575 2861 c-83 -29 -102 -39 -109 -57 -6 -15 -1 -16 37 -11 23 3 56
13 72 21 17 9 37 16 46 16 9 0 22 7 30 16 10 13 10 17 -2 25 -17 10 -12 11
-74 -10z"/>
<path d="M1915 2862 c-54 -23 -65 -31 -65 -48 0 -15 35 -20 44 -5 3 4 20 11
37 15 37 7 59 23 59 42 0 18 -26 17 -75 -4z"/>
<path d="M1452 2088 c-5 -7 -19 -32 -31 -55 -68 -135 -53 -339 31 -421 72 -68
194 -95 268 -57 52 26 116 97 135 152 34 94 58 134 111 189 58 61 60 64 43 81
-36 36 -152 -78 -195 -191 -53 -140 -108 -192 -196 -182 -25 3 -57 11 -69 18
-115 67 -141 237 -62 394 14 29 23 59 20 68 -8 19 -40 21 -55 4z"/>
<path d="M7137 113 c-15 -15 -7 -43 13 -43 14 0 20 -7 20 -21 0 -16 -4 -19
-20 -14 -11 4 -20 2 -20 -4 0 -14 47 -14 55 -1 11 17 -5 47 -28 55 l-22 8 23
4 c12 2 22 9 22 14 0 10 -33 12 -43 2z"/>
</g>
</svg>
