<?xml version="1.0" standalone="no"?>
<!DOCTYPE svg PUBLIC "-//W3C//DTD SVG 20010904//EN"
 "http://www.w3.org/TR/2001/REC-SVG-20010904/DTD/svg10.dtd">
<svg version="1.0" xmlns="http://www.w3.org/2000/svg"
 width="586.000000pt" height="498.000000pt" viewBox="0 0 586.000000 498.000000"
 preserveAspectRatio="xMidYMid meet">

<g transform="translate(0.000000,498.000000) scale(0.100000,-0.100000)"
fill="#000000" stroke="none">
<path d="M2728 3874 c-2 -2 -49 -4 -104 -5 -183 -2 -514 -37 -699 -73 -33 -6
-108 -19 -130 -22 -11 -1 -20 -3 -20 -4 0 -1 -11 -3 -25 -5 -65 -9 -255 -57
-258 -66 -2 -5 -8 -7 -13 -3 -5 3 -15 2 -21 -3 -7 -4 -17 -8 -23 -8 -18 0
-155 -49 -155 -55 0 -3 -12 -7 -26 -8 -24 -2 -122 -48 -134 -63 -3 -4 -15 -9
-28 -13 -12 -4 -20 -12 -17 -17 4 -5 -1 -9 -10 -9 -19 0 -93 -37 -112 -56 -8
-7 -27 -21 -43 -31 -17 -9 -30 -20 -30 -23 0 -3 14 -14 30 -25 16 -11 30 -23
30 -27 0 -5 7 -8 15 -8 9 0 12 -6 9 -17 -5 -15 -4 -16 5 -3 10 13 13 13 26 -4
47 -61 282 -136 605 -192 351 -61 423 -67 710 -59 146 4 369 9 495 12 391 8
598 20 685 43 29 7 115 17 215 25 11 1 31 6 45 12 17 7 29 7 38 1 8 -7 16 -7
26 1 7 6 60 18 117 26 57 9 112 18 122 21 10 3 68 16 130 30 62 13 123 27 137
30 14 3 29 9 34 15 6 5 18 9 29 9 29 0 163 59 182 80 10 11 24 20 32 20 23 0
14 18 -16 31 -16 7 -27 17 -25 21 3 4 1 8 -5 8 -5 0 -46 25 -91 55 -45 30 -90
55 -100 55 -10 0 -22 4 -25 10 -8 13 -95 53 -175 80 -36 12 -74 25 -85 30 -11
4 -56 20 -100 35 -44 15 -87 30 -95 33 -8 3 -22 6 -30 7 -8 1 -26 6 -40 10
-14 5 -34 9 -45 11 -11 2 -58 10 -105 19 -47 9 -104 18 -127 20 -23 2 -53 7
-67 11 -14 3 -38 7 -53 9 -15 2 -73 10 -128 18 -89 13 -547 22 -557 11z m1520
-368 c-7 -8 -17 -12 -22 -9 -4 3 -2 9 5 14 22 13 31 11 17 -5z m49 -22 c-3 -3
-12 -4 -19 -1 -8 3 -5 6 6 6 11 1 17 -2 13 -5z m-3266 -97 c-10 -9 -11 -8 -5
6 3 10 9 15 12 12 3 -3 0 -11 -7 -18z"/>
<path d="M1135 3100 c-3 -5 -1 -10 4 -10 6 0 11 5 11 10 0 6 -2 10 -4 10 -3 0
-8 -4 -11 -10z"/>
<path d="M3600 3010 c0 -5 5 -10 10 -10 6 0 10 5 10 10 0 6 -4 10 -10 10 -5 0
-10 -4 -10 -10z"/>
</g>
</svg>
